<svg width="618" height="580" viewBox="0 0 618 580" fill="none" xmlns="http://www.w3.org/2000/svg">
<path d="M459.693 150.208C459.693 150.208 465.293 137.846 473.596 129.443C482.286 120.558 489.914 118.916 493.872 123.359C497.831 127.801 495.996 134.465 483.831 141.709C472.727 148.18 459.693 150.208 459.693 150.208Z" fill="#EB5F6D"/>
<path d="M435.362 129.346C435.362 129.346 439.61 116.501 447.045 107.23C454.769 97.475 462.203 95.0605 466.548 99.0202C470.99 102.98 469.831 109.837 458.438 118.336C448.203 125.966 435.362 129.346 435.362 129.346Z" fill="#EB5F6D"/>
<path d="M487.307 102.304C487.307 102.304 494.548 90.8109 503.914 83.5674C513.762 75.9375 521.486 75.358 524.866 80.187C528.245 85.1127 525.445 91.487 512.41 97.0886C500.534 102.111 487.307 102.304 487.307 102.304Z" fill="#EB5F6D"/>
<path d="M526.411 126.449C526.411 126.449 533.652 114.956 543.018 107.712C552.866 100.083 560.59 99.5031 563.969 104.332C567.349 109.161 564.549 115.632 551.514 121.234C539.638 126.256 526.411 126.449 526.411 126.449Z" fill="#EB5F6D"/>
<path d="M495.61 168.944C495.61 168.944 502.562 157.258 511.735 149.822C521.39 141.999 529.114 141.129 532.59 145.958C536.066 150.787 533.459 157.258 520.617 163.15C508.838 168.462 495.61 168.944 495.61 168.944Z" fill="#EB5F6D"/>
<path d="M537.997 177.25C537.997 177.25 546.011 166.337 555.955 159.866C566.287 153.009 574.107 153.009 577.1 158.127C580.093 163.246 576.811 169.427 563.39 173.967C551.224 178.023 537.997 177.25 537.997 177.25Z" fill="#EB5F6D"/>
<path d="M496.769 203.907C496.769 203.907 505.555 193.572 515.886 187.778C526.7 181.693 534.521 182.176 537.031 187.584C539.638 192.896 535.969 198.884 522.259 202.458C509.9 205.742 496.769 203.907 496.769 203.907Z" fill="#EB5F6D"/>
<path d="M564.162 207.77C564.162 207.77 574.976 199.561 586.273 196.18C598.149 192.607 605.583 194.732 607.031 200.526C608.383 206.321 603.556 211.343 589.459 211.826C576.618 212.309 564.162 207.77 564.162 207.77Z" fill="#EB5F6D"/>
<path d="M510.286 248.816C510.286 248.816 521.969 242.056 533.652 239.931C545.914 237.806 553.059 240.8 553.735 246.692C554.41 252.583 549.003 257.026 534.907 255.867C522.065 254.804 510.286 248.816 510.286 248.816Z" fill="#EB5F6D"/>
<path d="M573.914 233.943C573.914 233.943 585.79 227.376 597.472 225.541C609.735 223.609 616.879 226.796 617.459 232.688C618.038 238.579 612.535 242.925 598.438 241.476C585.597 240.124 573.914 233.943 573.914 233.943Z" fill="#EB5F6D"/>
<path d="M556.824 275.376C556.824 275.376 569.279 270.161 581.155 269.581C593.514 269.002 600.273 272.962 600.176 278.853C600.079 284.744 594.19 288.511 580.286 285.517C567.735 282.813 556.824 275.376 556.824 275.376Z" fill="#EB5F6D"/>
<path d="M509.224 305.412C509.224 305.412 521.969 300.777 533.845 300.873C546.3 300.97 552.769 305.219 552.383 311.111C551.997 317.002 545.914 320.382 532.203 316.712C519.748 313.429 509.224 305.412 509.224 305.412Z" fill="#EB5F6D"/>
<path d="M493.1 332.165C493.1 332.165 506.328 329.171 518.107 330.717C530.466 332.262 536.355 337.381 535.197 343.175C534.038 348.97 527.666 351.578 514.438 346.266C502.562 341.437 493.1 332.165 493.1 332.165Z" fill="#EB5F6D"/>
<path d="M538.093 349.357C538.093 349.357 551.321 346.363 563.1 347.908C575.459 349.453 581.349 354.572 580.19 360.367C579.031 366.162 572.659 368.769 559.431 363.457C547.555 358.628 538.093 349.357 538.093 349.357Z" fill="#EB5F6D"/>
<path d="M453.127 352.93C453.127 352.93 466.355 349.936 478.134 351.481C490.493 353.027 496.383 358.145 495.224 363.94C494.065 369.735 487.693 372.343 474.465 367.031C462.59 362.202 453.127 352.93 453.127 352.93Z" fill="#EB5F6D"/>
<path d="M458.438 399.675C458.438 399.675 471.955 398.903 483.348 402.379C495.224 405.953 500.245 411.941 498.217 417.543C496.19 423.144 489.334 424.593 477.265 417.156C466.258 410.396 458.438 399.675 458.438 399.675Z" fill="#EB5F6D"/>
<path d="M506.231 432.995C506.231 432.995 519.748 432.802 530.948 436.665C542.631 440.722 547.459 446.903 545.141 452.408C542.824 457.913 535.969 459.072 524.19 451.153C513.569 444.006 506.231 432.995 506.231 432.995Z" fill="#EB5F6D"/>
<path d="M464.617 446.42C464.617 446.42 477.941 448.834 488.176 454.726C498.893 461.004 502.369 467.957 499.086 472.883C495.803 477.809 488.852 477.712 478.81 467.668C469.734 458.589 464.617 446.42 464.617 446.42Z" fill="#EB5F6D"/>
<path d="M419.527 434.541C419.527 434.541 431.983 439.949 440.479 448.158C449.458 456.754 451.196 464.384 446.852 468.344C442.507 472.4 435.748 470.565 428.314 458.492C421.651 447.675 419.527 434.541 419.527 434.541Z" fill="#EB5F6D"/>
<path d="M390.272 451.635C390.272 451.635 400.507 460.521 406.3 470.855C412.383 481.672 411.803 489.495 406.493 492.006C401.183 494.614 395.196 490.944 391.721 477.133C388.438 464.77 390.272 451.635 390.272 451.635Z" fill="#EB5F6D"/>
<path d="M361.79 461.969C361.79 461.969 369.9 472.883 373.183 484.183C376.658 496.062 374.438 503.596 368.645 504.851C362.852 506.107 357.927 501.278 357.445 487.177C357.155 474.428 361.79 461.969 361.79 461.969Z" fill="#EB5F6D"/>
<path d="M355.417 516.248C355.417 516.248 361.789 528.224 363.431 539.91C365.169 552.175 361.789 559.226 355.9 559.709C350.01 560.192 345.762 554.59 347.5 540.489C348.948 527.741 355.417 516.248 355.417 516.248Z" fill="#EB5F6D"/>
<path d="M314.769 470.855C314.769 470.855 319.5 483.507 319.596 495.386C319.693 507.845 315.444 514.316 309.555 514.026C303.665 513.737 300.189 507.652 303.665 493.938C306.851 481.479 314.769 470.855 314.769 470.855Z" fill="#EB5F6D"/>
<path d="M325.968 536.819C325.968 536.819 330.7 549.471 330.796 561.351C330.893 573.81 326.644 580.281 320.755 579.991C314.865 579.701 311.389 573.616 314.865 559.902C318.148 547.443 325.968 536.819 325.968 536.819Z" fill="#EB5F6D"/>
<path d="M293.431 523.298C293.431 523.298 296.231 536.53 294.589 548.312C292.851 560.578 287.734 566.469 281.844 565.311C275.955 564.152 273.541 557.584 279.044 544.546C284.065 532.57 293.431 523.298 293.431 523.298Z" fill="#EB5F6D"/>
<path d="M270.837 462.259C270.837 462.259 272.672 475.684 270.065 487.274C267.362 499.443 261.762 504.851 256.065 503.209C250.368 501.567 248.341 494.903 254.81 482.251C260.796 470.855 270.837 462.259 270.837 462.259Z" fill="#EB5F6D"/>
<path d="M212.713 438.983C212.713 438.983 211.072 452.408 205.665 463.032C199.968 474.042 193.21 477.905 188.092 474.911C182.975 471.917 182.782 464.963 192.244 454.34C200.837 444.778 212.713 438.983 212.713 438.983Z" fill="#EB5F6D"/>
<path d="M219.375 503.209C219.375 503.209 218.892 516.731 214.354 527.741C209.623 539.234 203.251 543.676 197.844 541.069C192.534 538.461 191.665 531.604 200.258 520.207C207.982 509.97 219.375 503.209 219.375 503.209Z" fill="#EB5F6D"/>
<path d="M157.003 444.778C157.003 444.778 151.596 457.14 143.389 465.736C134.796 474.718 127.168 476.456 123.21 472.11C119.154 467.764 120.989 461.004 133.058 453.567C143.968 446.903 157.003 444.778 157.003 444.778Z" fill="#EB5F6D"/>
<path d="M146.768 399.192C146.768 399.192 141.361 411.554 133.155 420.15C124.561 429.132 116.934 430.87 112.975 426.524C108.92 422.178 110.754 415.418 122.823 407.981C133.734 401.317 146.768 399.192 146.768 399.192Z" fill="#EB5F6D"/>
<path d="M106.216 397.84C106.216 397.84 97.9128 408.56 87.8714 414.838C77.3473 421.406 69.5266 421.212 66.7266 415.997C63.9266 410.782 67.3059 404.697 80.8231 400.448C93.0852 396.681 106.216 397.84 106.216 397.84Z" fill="#EB5F6D"/>
<path d="M107.472 361.719C107.472 361.719 99.6508 372.729 89.8991 379.49C79.6646 386.54 71.8439 386.733 68.8508 381.614C65.7611 376.496 68.8508 370.315 82.1749 365.486C94.2439 361.139 107.472 361.719 107.472 361.719Z" fill="#EB5F6D"/>
<path d="M67.8851 354.379C67.8851 354.379 58.0368 363.651 47.1265 368.383C35.7333 373.309 28.0092 371.957 26.0781 366.355C24.0505 360.753 28.2988 355.248 42.2989 353.123C55.0437 351.192 67.8851 354.379 67.8851 354.379Z" fill="#EB5F6D"/>
<path d="M90.0922 318.258C90.0922 318.258 80.2439 327.529 69.3335 332.262C57.9404 337.187 50.2162 335.835 48.2852 330.234C46.2576 324.632 50.5059 319.127 64.5059 317.002C77.2508 315.167 90.0922 318.258 90.0922 318.258Z" fill="#EB5F6D"/>
<path d="M112.106 283.779C112.106 283.779 100.616 290.926 89.0301 293.34C76.8645 295.851 69.6232 293.05 68.7542 287.159C67.8852 281.268 73.099 276.728 87.2922 277.404C100.134 278.177 112.106 283.779 112.106 283.779Z" fill="#EB5F6D"/>
<path d="M43.1679 283.875C43.1679 283.875 30.5196 288.608 18.6437 288.704C6.28506 288.801 -0.280467 284.648 0.00918928 278.756C0.298845 272.865 6.38162 269.388 20.092 272.865C32.6437 276.052 43.1679 283.875 43.1679 283.875Z" fill="#EB5F6D"/>
<path d="M151.306 236.164C151.306 236.164 138.658 240.897 126.782 240.993C114.327 241.09 107.858 236.841 108.148 230.949C108.437 225.058 114.52 221.581 128.23 225.058C140.686 228.245 151.306 236.164 151.306 236.164Z" fill="#EB5F6D"/>
<path d="M97.0438 225.251C97.0438 225.251 84.3955 229.983 72.5196 230.08C60.0644 230.176 53.5954 225.927 53.8851 220.036C54.1747 214.144 60.2575 210.667 73.9679 214.144C86.4231 217.331 97.0438 225.251 97.0438 225.251Z" fill="#EB5F6D"/>
<path d="M142.713 201.589C142.713 201.589 129.292 203.617 117.706 201.299C105.54 198.884 99.9403 193.379 101.485 187.681C103.03 181.983 109.595 179.858 122.34 186.039C133.927 191.737 142.713 201.589 142.713 201.589Z" fill="#EB5F6D"/>
<path d="M89.4162 186.619C89.4162 186.619 75.9955 188.647 64.4092 186.329C52.2437 183.914 46.6437 178.409 48.1885 172.711C49.7333 167.013 56.2989 164.888 69.0437 171.069C80.7265 176.767 89.4162 186.619 89.4162 186.619Z" fill="#EB5F6D"/>
<path d="M127.361 165.081C127.361 165.081 113.941 167.109 102.354 164.792C90.1888 162.377 84.5887 156.872 86.1336 151.174C87.6784 145.475 94.2439 143.351 106.989 149.532C118.575 155.23 127.361 165.081 127.361 165.081Z" fill="#EB5F6D"/>
<path d="M169.265 162.28C169.265 162.28 155.844 160.639 145.223 155.23C134.12 149.628 130.258 142.868 133.251 137.749C136.244 132.63 143.196 132.341 153.817 141.805C163.472 150.401 169.265 162.28 169.265 162.28Z" fill="#EB5F6D"/>
<path d="M121.858 128.767C121.858 128.767 108.437 127.125 97.8163 121.717C86.7128 116.115 82.8507 109.354 85.8438 104.236C88.8369 99.1169 95.7887 98.8271 106.409 108.292C116.065 116.888 121.858 128.767 121.858 128.767Z" fill="#EB5F6D"/>
<path d="M176.892 130.988C176.892 130.988 163.858 127.125 154.396 120.075C144.451 112.735 141.748 105.395 145.513 100.855C149.279 96.316 156.23 97.1852 165.113 108.292C173.223 118.336 176.892 130.988 176.892 130.988Z" fill="#EB5F6D"/>
<path d="M137.016 94.5775C137.016 94.5775 123.982 90.7143 114.52 83.664C104.575 76.3238 101.871 68.9837 105.637 64.4444C109.402 59.9052 116.354 60.7744 125.237 71.8811C133.251 81.9255 137.016 94.5775 137.016 94.5775Z" fill="#EB5F6D"/>
<path d="M221.306 134.369C221.306 134.369 209.044 128.574 200.74 120.171C192.051 111.382 190.409 103.753 194.947 99.7928C199.389 95.9296 206.051 97.8612 213.196 110.127C219.471 121.234 221.306 134.369 221.306 134.369Z" fill="#EB5F6D"/>
<path d="M192.148 87.4306C192.148 87.4306 179.886 81.6358 171.582 73.2333C162.892 64.4445 161.251 56.8146 165.789 52.8548C170.327 48.895 176.893 50.9232 184.037 63.1889C190.41 74.2957 192.148 87.4306 192.148 87.4306Z" fill="#EB5F6D"/>
<path d="M253.844 115.729C253.844 115.729 243.513 107.036 237.623 96.7024C231.444 85.8854 231.927 78.1589 237.237 75.5513C242.548 72.9436 248.534 76.5171 252.203 90.2315C255.582 102.594 253.844 115.729 253.844 115.729Z" fill="#EB5F6D"/>
<path d="M234.92 61.9334C234.92 61.9334 224.589 53.2412 218.699 42.9071C212.52 32.0901 213.003 24.3636 218.313 21.756C223.623 19.1483 229.609 22.7218 233.278 36.4362C236.561 48.7985 234.92 61.9334 234.92 61.9334Z" fill="#EB5F6D"/>
<path d="M286.479 104.912C286.479 104.912 277.886 94.3844 274.024 83.1811C269.968 71.3983 271.899 63.865 277.596 62.3197C283.293 60.6778 288.506 65.3137 289.568 79.511C290.534 92.3562 286.479 104.912 286.479 104.912Z" fill="#EB5F6D"/>
<path d="M278.851 42.907C278.851 42.907 270.258 32.3798 266.396 21.1764C262.341 9.39363 264.272 1.86035 269.969 0.315068C275.665 -1.3268 280.879 3.30906 281.941 17.5064C282.907 30.3516 278.851 42.907 278.851 42.907Z" fill="#EB5F6D"/>
<path d="M324.038 102.69C324.038 102.69 318.727 90.2314 318.244 78.352C317.665 65.9897 321.624 59.2291 327.513 59.3257C333.403 59.4222 337.169 65.3137 334.175 79.2212C331.472 91.7767 324.038 102.69 324.038 102.69Z" fill="#EB5F6D"/>
<path d="M343.541 57.5871C343.541 57.5871 339.775 44.5488 340.644 32.766C341.513 20.4037 346.244 14.2225 352.134 14.9952C358.024 15.7678 360.92 22.0456 356.382 35.4702C352.327 47.6394 343.541 57.5871 343.541 57.5871Z" fill="#EB5F6D"/>
<path d="M312.644 58.0702C312.644 58.0702 307.334 45.6113 306.851 33.732C306.272 21.3697 310.23 14.609 316.12 14.7056C322.01 14.8022 325.775 20.6936 322.782 34.6012C320.079 47.1566 312.644 58.0702 312.644 58.0702Z" fill="#EB5F6D"/>
<path d="M181.334 490.557C181.334 490.557 177.858 503.692 171.099 513.35C163.954 523.491 156.713 526.389 152.078 522.719C147.444 519.048 148.12 512.095 158.934 502.92C168.782 494.614 181.334 490.557 181.334 490.557Z" fill="#EB5F6D"/>
<path d="M408.231 104.525C408.231 104.525 406.396 91.1007 409.003 79.511C411.707 67.3419 417.307 61.9334 423.003 63.5752C428.7 65.2171 430.727 71.8812 424.258 84.5332C418.369 95.9297 408.231 104.525 408.231 104.525Z" fill="#EB5F6D"/>
<path d="M367.679 105.298C367.679 105.298 365.555 91.8733 367.872 80.2837C370.286 68.1145 375.693 62.5129 381.486 64.0581C387.279 65.6034 389.403 72.1709 383.224 84.9195C377.527 96.5092 367.679 105.298 367.679 105.298Z" fill="#EB5F6D"/>
<path d="M388.727 50.0539C388.727 50.0539 386.603 36.6292 388.921 25.0396C391.334 12.8704 396.741 7.26878 402.534 8.81407C408.328 10.3594 410.452 16.9268 404.272 29.6754C398.576 41.2651 388.727 50.0539 388.727 50.0539Z" fill="#EB5F6D"/>
<path d="M437.39 61.3539C437.39 61.3539 437.679 47.8326 442.024 36.7258C446.562 25.1362 452.935 20.6935 458.341 23.2046C463.748 25.7157 464.617 32.5729 456.314 44.066C448.686 54.4966 437.39 61.3539 437.39 61.3539Z" fill="#EB5F6D"/>
<path d="M463.555 77.2897C463.555 77.2897 466.645 64.0582 473.21 54.207C480.065 43.8729 487.21 40.6857 491.941 44.2592C496.672 47.8327 496.189 54.7864 485.665 64.2513C476.01 72.847 463.555 77.2897 463.555 77.2897Z" fill="#EB5F6D"/>
<path d="M248.92 519.531C248.92 519.531 250.755 532.956 248.148 544.546C245.444 556.715 239.844 562.123 234.148 560.481C228.451 558.84 226.424 552.176 232.893 539.523C238.879 528.03 248.92 519.531 248.92 519.531Z" fill="#EB5F6D"/>
<path d="M383.514 520.401C383.514 520.401 393.169 529.962 398.19 540.682C403.5 551.886 402.438 559.612 396.934 561.834C391.431 564.055 385.734 559.998 383.224 545.994C380.81 533.342 383.514 520.401 383.514 520.401Z" fill="#EB5F6D"/>
<path d="M418.079 505.141C418.079 505.141 428.217 514.123 433.914 524.457C439.9 535.371 439.224 543.097 433.914 545.608C428.507 548.119 422.617 544.449 419.238 530.638C416.148 518.179 418.079 505.141 418.079 505.141Z" fill="#EB5F6D"/>
<path d="M454.576 489.108C454.576 489.108 467.031 494.517 475.527 502.726C484.507 511.322 486.245 518.952 481.9 522.912C477.555 526.968 470.796 525.133 463.362 513.06C456.7 502.147 454.576 489.108 454.576 489.108Z" fill="#EB5F6D"/>
<path d="M503.431 483.603C503.431 483.603 516.852 485.535 527.279 491.233C538.19 497.125 541.859 503.982 538.769 509.004C535.679 514.026 528.631 514.123 518.3 504.465C508.935 495.579 503.431 483.603 503.431 483.603Z" fill="#EB5F6D"/>
<path d="M538.19 400.544C538.19 400.544 551.417 397.55 563.197 399.096C575.555 400.641 581.445 405.76 580.286 411.554C579.128 417.349 572.755 419.957 559.528 414.645C547.652 409.719 538.19 400.544 538.19 400.544Z" fill="#EB5F6D"/>
<path d="M502.755 371.86C502.755 371.86 515.983 368.866 527.762 370.411C540.121 371.957 546.01 377.075 544.852 382.87C543.693 388.665 537.321 391.273 524.093 385.961C512.217 381.132 502.755 371.86 502.755 371.86Z" fill="#EB5F6D"/>
<path d="M563.39 316.326C563.39 316.326 576.135 311.69 588.011 311.787C600.466 311.883 606.935 316.133 606.549 322.024C606.162 327.916 600.08 331.296 586.369 327.626C573.914 324.342 563.39 316.326 563.39 316.326Z" fill="#EB5F6D"/>
</svg>
